<svg width="267" height="2322" viewBox="0 0 267 2322" fill="none" xmlns="http://www.w3.org/2000/svg">
<path d="M87.9449 2063.85L193.379 2322L267 2259.1V1161H0L87.9449 2063.85Z" fill="black"/>
<path d="M118.123 1989.2L205.787 2226L267 2168.3V1161H45L118.123 1989.2Z" fill="#292929"/>
<path d="M131 1861.5L212.5 2038.5L267 1981V1161H45L131 1861.5Z" fill="#3F3F3F"/>
<path d="M87.9449 258.146L193.379 -4.3869e-05L267 62.8984V1161H0L87.9449 258.146Z" fill="black"/>
<path d="M118.123 332.8L205.787 96L267 153.698V1161H45L118.123 332.8Z" fill="#292929"/>
<path d="M131 460.5L212.5 283.5L267 341V1161H45L131 460.5Z" fill="#3F3F3F"/>
</svg>
